<?xml version="1.0" encoding="UTF-8" standalone="no"?><!DOCTYPE svg PUBLIC "-//W3C//DTD SVG 1.1//EN" "http://www.w3.org/Graphics/SVG/1.1/DTD/svg11.dtd"><svg width="100%" height="100%" viewBox="0 0 118 118" version="1.1" xmlns="http://www.w3.org/2000/svg" xmlns:xlink="http://www.w3.org/1999/xlink" xml:space="preserve" xmlns:serif="http://www.serif.com/" style="fill-rule:evenodd;clip-rule:evenodd;stroke-linejoin:round;stroke-miterlimit:2;"><g><circle cx="58.901" cy="58.901" r="58.901" style="fill:#1a1a1a;"/><g transform="matrix(97.7119,0,0,97.7119,17.505492,79.798675)"><path d="M0.157,-0.002c-0.025,0 -0.047,0 -0.068,0.001c-0.02,0 -0.041,0.001 -0.063,0.002l0,-0.031l0.025,-0.002c0.022,-0.002 0.037,-0.007 0.045,-0.016c0.008,-0.009 0.012,-0.024 0.012,-0.046l0,-0.112l0.098,0l0,0.112c0,0.022 0.004,0.038 0.011,0.047c0.007,0.009 0.02,0.015 0.039,0.017l0.009,0.001l0,0.031c-0.018,-0.001 -0.036,-0.001 -0.052,-0.002c-0.017,-0 -0.035,-0.001 -0.055,-0.001Zm-0.049,-0.205l0,-0.11c0,-0.023 -0.004,-0.039 -0.012,-0.048c-0.008,-0.009 -0.024,-0.015 -0.046,-0.017l-0.024,-0.002l0,-0.031c0.011,0.001 0.022,0.001 0.032,0.001c0.01,0 0.02,0 0.031,0c0.023,-0 0.045,-0.001 0.064,-0.003c0.019,-0.002 0.037,-0.005 0.053,-0.008l0,0.218l-0.098,0Zm0.266,0l0,-0.081c0,-0.031 -0.006,-0.053 -0.018,-0.068c-0.012,-0.015 -0.03,-0.023 -0.055,-0.023c-0.025,0 -0.048,0.008 -0.068,0.025c-0.02,0.017 -0.037,0.043 -0.052,0.077l-0.006,-0.016c0.017,-0.047 0.039,-0.081 0.067,-0.103c0.027,-0.022 0.06,-0.033 0.098,-0.033c0.043,0 0.075,0.013 0.098,0.038c0.022,0.025 0.034,0.062 0.034,0.11l0,0.073l-0.098,0Zm0.049,0.205c-0.02,-0 -0.038,0 -0.055,0.001c-0.017,0 -0.034,0.001 -0.053,0.002l0,-0.031l0.009,-0.001c0.019,-0.002 0.032,-0.008 0.039,-0.017c0.007,-0.009 0.011,-0.025 0.011,-0.047l0,-0.112l0.098,0l0,0.112c0,0.022 0.004,0.038 0.011,0.047c0.007,0.009 0.02,0.015 0.039,0.017l0.009,0.001l0,0.031c-0.018,-0.001 -0.036,-0.001 -0.052,-0.002c-0.017,-0 -0.035,-0.001 -0.055,-0.001Zm0.217,-0.205l0,-0.081c0,-0.031 -0.006,-0.054 -0.019,-0.069c-0.012,-0.015 -0.031,-0.023 -0.057,-0.023c-0.025,0 -0.048,0.008 -0.068,0.024c-0.02,0.016 -0.038,0.04 -0.053,0.073l-0.009,-0.02c0.017,-0.042 0.04,-0.073 0.068,-0.094c0.029,-0.021 0.063,-0.031 0.102,-0.031c0.043,0 0.076,0.013 0.099,0.038c0.023,0.025 0.034,0.062 0.034,0.11l0,0.073l-0.098,0Zm0.049,0.205c-0.02,-0 -0.038,0 -0.055,0.001c-0.017,0 -0.034,0.001 -0.053,0.002l0,-0.031l0.009,-0.001c0.019,-0.002 0.032,-0.008 0.039,-0.017c0.007,-0.009 0.011,-0.025 0.011,-0.047l0,-0.112l0.098,0l0,0.112c0,0.022 0.004,0.037 0.012,0.046c0.008,0.009 0.023,0.014 0.045,0.016l0.025,0.002l0,0.031c-0.022,-0.001 -0.043,-0.001 -0.063,-0.002c-0.02,-0 -0.043,-0.001 -0.068,-0.001Z" style="fill:#fff;fill-rule:nonzero;"/></g><g transform="matrix(97.7119,0,0,97.7119,100.324207,79.798675)"></g></g></svg>